<?xml version="1.0" standalone="no"?>
<!DOCTYPE svg PUBLIC "-//W3C//DTD SVG 20010904//EN"
 "http://www.w3.org/TR/2001/REC-SVG-20010904/DTD/svg10.dtd">
<svg version="1.0" xmlns="http://www.w3.org/2000/svg"
 width="500.000000pt" height="500.000000pt" viewBox="0 0 500.000000 500.000000"
 preserveAspectRatio="xMidYMid meet">
<metadata>
Created by potrace 1.16, written by Peter Selinger 2001-2019
</metadata>
<g transform="translate(0.000000,500.000000) scale(0.100000,-0.100000)"
fill="#000000" stroke="none">
<path d="M1492 3017 c-34 -34 -62 -67 -62 -72 0 -14 113 -125 127 -125 22 0
14 14 -32 60 l-46 45 107 5 c73 3 109 9 112 18 3 9 -23 12 -107 12 -61 0 -111
4 -111 8 0 4 20 28 45 52 43 42 54 60 37 60 -4 0 -36 -28 -70 -63z"/>
<path d="M1815 3007 c-90 -41 -80 -140 17 -169 43 -13 60 -35 37 -49 -20 -13
-27 -11 -49 11 -11 11 -33 20 -50 20 -27 0 -30 -3 -30 -29 0 -48 42 -74 109
-69 45 4 59 10 83 37 50 56 31 109 -52 136 -37 12 -50 22 -50 36 0 26 46 26
62 -1 9 -13 24 -20 45 -20 28 0 33 4 33 24 0 62 -88 103 -155 73z"/>
<path d="M2022 3011 c-8 -5 -42 -231 -42 -279 0 -9 28 -12 99 -12 104 0 111 3
111 51 0 17 -8 19 -66 19 -62 0 -65 1 -62 23 2 18 10 23 46 25 27 2 42 8 42
17 0 7 3 20 6 29 5 13 -1 16 -33 16 -46 0 -53 4 -46 31 5 16 14 19 68 19 60 0
63 1 68 28 3 15 3 29 1 31 -7 7 -181 9 -192 2z"/>
<path d="M2250 2997 c-5 -12 -14 -67 -20 -122 -6 -55 -13 -112 -16 -127 -5
-27 -4 -28 34 -28 l39 0 9 78 9 77 37 -77 c35 -75 38 -78 71 -78 l34 0 17 140
c9 77 15 144 11 149 -3 5 -18 8 -33 7 -28 -3 -33 -13 -48 -111 l-6 -40 -36 75
c-32 65 -41 75 -65 77 -20 1 -30 -4 -37 -20z"/>
<path d="M2521 3000 c-5 -8 -14 -64 -20 -125 -7 -60 -14 -121 -17 -134 l-5
-24 86 5 c79 4 89 7 115 34 25 24 31 42 40 107 13 88 8 111 -25 133 -33 22
-164 25 -174 4z"/>
<path d="M2781 3011 c-7 -5 -41 -232 -41 -279 0 -16 125 -16 169 -1 51 18 76
84 47 124 -12 17 -12 22 5 44 37 47 10 109 -48 113 -81 4 -123 4 -132 -1z"/>
<path d="M3025 3006 c-2 -6 -8 -56 -15 -111 -6 -55 -13 -117 -16 -138 l-6 -38
104 3 103 3 3 33 3 32 -66 0 c-57 0 -66 2 -61 16 3 9 6 20 6 25 0 5 18 9 39 9
26 0 41 5 45 16 13 35 7 44 -34 44 -36 0 -40 3 -40 25 0 24 2 25 65 25 60 0
65 2 71 24 3 14 3 29 0 35 -9 13 -197 10 -201 -3z"/>
<path d="M3249 2992 c-14 -37 -11 -42 27 -42 l37 0 -6 -67 c-4 -38 -10 -89
-13 -115 l-7 -48 36 0 c30 0 38 4 41 23 5 23 26 184 26 199 0 4 18 8 40 8 38
0 40 2 40 30 0 35 4 33 -119 34 -89 1 -94 0 -102 -22z"/>
<path d="M3579 2999 c-10 -20 -119 -271 -119 -276 0 -2 18 -3 39 -3 31 0 41 4
46 20 5 16 15 20 56 20 42 0 49 -3 49 -20 0 -17 7 -20 40 -20 25 0 40 5 40 13
0 11 -34 205 -45 253 -4 18 -13 23 -51 26 -35 2 -48 -1 -55 -13z"/>
<path d="M1340 2943 c0 -4 21 -29 47 -55 l47 -48 -112 0 c-93 0 -112 -3 -112
-15 0 -12 19 -15 112 -15 l112 0 -47 -48 c-43 -44 -59 -72 -39 -72 11 0 132
124 132 135 0 14 -113 125 -127 125 -7 0 -13 -3 -13 -7z"/>
</g>
</svg>
