<?xml version="1.0" standalone="no"?>
<!DOCTYPE svg PUBLIC "-//W3C//DTD SVG 20010904//EN"
 "http://www.w3.org/TR/2001/REC-SVG-20010904/DTD/svg10.dtd">
<svg version="1.0" xmlns="http://www.w3.org/2000/svg"
 width="1080.000000pt" height="1080.000000pt" viewBox="0 0 1080.000000 1080.000000"
 preserveAspectRatio="xMidYMid meet">
<metadata>
Created by potrace 1.16, written by Peter Selinger 2001-2019
</metadata>
<g transform="translate(0.000000,1080.000000) scale(0.100000,-0.100000)"
fill="#000000" stroke="none">
<path d="M1614 6470 c-11 -4 -132 -122 -268 -261 -209 -215 -246 -258 -244
-280 2 -18 73 -98 243 -273 132 -136 251 -253 265 -260 44 -24 100 18 85 63
-3 10 -90 106 -194 212 l-188 194 446 5 c245 3 452 9 459 13 6 5 12 26 12 47
0 21 -6 42 -12 47 -7 4 -214 10 -460 13 l-447 5 76 80 c42 44 129 134 194 201
66 66 119 128 119 138 0 17 -43 67 -57 65 -4 0 -17 -4 -29 -9z"/>
<path d="M2749 6236 c-183 -54 -297 -183 -316 -355 -7 -68 14 -150 51 -199 50
-69 144 -122 329 -187 65 -22 126 -49 137 -58 28 -24 25 -61 -8 -98 -23 -25
-38 -33 -79 -36 -97 -10 -175 41 -178 114 l-1 38 -147 3 -147 3 -10 -26 c-30
-79 4 -218 71 -290 163 -177 553 -158 732 35 72 78 100 147 100 255 1 69 -3
87 -27 132 -27 50 -74 95 -126 123 -14 7 -81 33 -150 57 -215 74 -258 106
-230 172 17 42 56 61 126 61 90 0 147 -49 149 -130 l0 -25 150 0 150 0 9 44
c20 92 -25 213 -103 284 -113 102 -306 135 -482 83z"/>
<path d="M3512 6242 c-15 -10 -11 20 -72 -487 -28 -225 -57 -463 -65 -528 -8
-66 -15 -134 -15 -153 l0 -34 414 0 c319 0 416 3 423 13 9 11 33 185 33 237 0
19 -8 20 -259 20 -143 0 -262 4 -265 8 -3 5 0 50 6 100 l11 92 162 0 c130 0
165 3 175 15 13 16 44 241 35 256 -4 5 -80 9 -171 9 l-165 0 6 58 c3 31 8 72
11 90 l5 32 258 0 c209 0 261 3 270 14 6 8 16 54 21 102 6 49 12 100 15 112
12 52 14 52 -419 52 -220 0 -407 -4 -414 -8z"/>
<path d="M4472 6242 c-8 -6 -23 -93 -42 -248 -83 -669 -110 -897 -110 -924 l0
-30 149 0 c83 0 152 4 155 8 2 4 10 53 16 107 51 454 60 511 73 494 2 -2 61
-134 132 -294 70 -159 132 -296 138 -302 7 -9 50 -13 153 -13 141 0 144 0 149
23 3 12 21 150 40 307 19 157 39 319 45 360 48 357 62 503 49 511 -18 11 -270
11 -287 0 -13 -8 -18 -38 -47 -281 -29 -255 -38 -311 -47 -308 -5 2 -68 132
-139 288 -72 157 -135 291 -141 298 -12 14 -264 17 -286 4z"/>
<path d="M5577 6235 c-10 -9 -17 -23 -17 -32 0 -8 -9 -86 -20 -172 -18 -142
-33 -264 -90 -736 -11 -88 -21 -180 -22 -205 l-3 -45 260 -3 c294 -3 345 3
452 54 91 44 166 116 205 200 25 54 34 97 59 291 34 262 39 383 19 434 -39 98
-108 161 -221 200 -59 21 -85 23 -335 27 -242 3 -272 2 -287 -13z m493 -292
c47 -43 51 -82 29 -267 -27 -226 -35 -256 -71 -300 -42 -52 -81 -66 -178 -66
-92 0 -85 -10 -71 115 39 329 63 522 66 533 3 8 32 12 100 12 89 0 96 -2 125
-27z"/>
<path d="M6611 6237 c-11 -14 -16 -49 -66 -457 -13 -113 -38 -315 -55 -449
-16 -134 -30 -254 -30 -267 l0 -24 288 0 c258 0 295 2 361 20 88 25 138 49
186 91 70 61 115 170 115 278 0 78 -18 127 -67 181 l-43 48 58 59 c73 73 96
132 96 249 0 100 -28 163 -92 211 -78 59 -168 72 -503 73 -186 0 -239 -3 -248
-13z m508 -291 c42 -38 22 -128 -34 -151 -45 -19 -225 -21 -225 -2 0 6 5 50
12 95 l11 84 108 -4 c88 -2 111 -6 128 -22z m-42 -462 c21 -21 25 -32 20 -66
-11 -80 -64 -108 -206 -108 l-84 0 7 84 c9 124 1 116 128 116 104 0 110 -1
135 -26z"/>
<path d="M7652 6242 c-15 -10 -19 -37 -67 -432 -19 -162 -48 -396 -63 -520
-16 -124 -27 -231 -24 -237 3 -10 96 -13 418 -13 l414 0 10 23 c8 21 30 181
30 225 l0 22 -259 0 c-153 0 -262 4 -266 9 -3 6 0 51 7 100 l12 91 162 0 c122
0 164 3 173 13 12 16 44 244 36 258 -4 5 -79 9 -172 9 l-165 0 7 68 c3 37 9
77 12 90 l5 22 258 0 c194 0 260 3 268 13 16 19 41 240 30 255 -8 9 -103 12
-412 12 -220 0 -407 -4 -414 -8z"/>
<path d="M8573 6238 c-6 -7 -16 -56 -22 -108 -7 -52 -14 -104 -16 -115 -8 -40
5 -44 155 -47 l145 -3 -3 -35 c-4 -44 -69 -581 -82 -675 -5 -38 -12 -103 -16
-142 l-7 -73 151 0 c83 0 153 4 156 8 2 4 12 66 20 137 9 72 21 166 27 210 5
44 23 187 39 318 16 131 32 243 35 248 4 5 73 9 155 9 82 0 151 4 154 9 3 4
12 64 21 131 12 98 12 125 2 132 -6 4 -213 8 -458 8 -346 0 -449 -3 -456 -12z"/>
<path d="M9943 6242 c-12 -8 -513 -1171 -513 -1191 0 -16 316 -15 327 1 4 7
19 42 33 78 l26 65 189 0 190 0 12 -75 c6 -41 12 -76 12 -77 2 -9 321 -1 326
7 8 13 -204 1171 -217 1188 -12 14 -363 18 -385 4z m167 -459 c7 -49 20 -140
30 -203 9 -63 15 -118 13 -122 -5 -10 -233 -11 -233 -1 0 4 32 88 71 187 39
100 75 191 80 204 16 41 27 23 39 -65z"/>
<path d="M770 5957 c-18 -9 -26 -22 -28 -47 -3 -33 7 -45 188 -225 104 -104
190 -193 190 -197 0 -5 -200 -8 -443 -8 -417 0 -445 -1 -460 -18 -22 -24 -21
-65 1 -85 17 -15 63 -17 460 -17 243 0 442 -3 442 -8 0 -4 -85 -93 -190 -197
-166 -166 -190 -194 -190 -221 0 -37 20 -56 56 -56 21 0 78 51 280 253 236
236 254 256 254 289 0 33 -18 53 -258 293 -142 141 -262 257 -267 257 -6 0
-21 -6 -35 -13z"/>
<path d="M7130 4901 c-106 -38 -144 -103 -169 -292 -18 -139 -15 -210 12 -249
38 -57 70 -74 147 -78 120 -7 213 53 245 160 17 59 39 276 33 331 -13 115
-137 174 -268 128z m161 -90 c24 -25 29 -38 29 -78 0 -69 -27 -279 -39 -300
-23 -43 -70 -75 -115 -80 -86 -10 -136 32 -136 114 0 71 31 276 46 305 23 44
70 68 132 68 46 0 58 -4 83 -29z"/>
<path d="M7681 4908 c-66 -19 -129 -74 -151 -133 -15 -39 -40 -238 -40 -319 0
-81 21 -122 81 -155 55 -31 149 -29 218 5 80 40 111 98 126 242 l7 62 -106 0
-106 0 0 -35 0 -35 61 0 62 0 -7 -52 c-9 -69 -28 -102 -70 -122 -63 -30 -151
-13 -176 33 -14 27 -12 96 5 227 18 134 24 153 65 187 26 22 41 27 89 27 72 0
107 -27 117 -89 6 -40 8 -41 45 -41 36 0 39 2 39 28 0 129 -123 210 -259 170z"/>
<path d="M8415 4909 c-90 -22 -145 -89 -145 -178 0 -70 28 -97 168 -166 128
-63 143 -82 120 -145 -19 -49 -66 -72 -141 -67 -72 4 -111 36 -111 92 0 34 -1
35 -37 35 -29 0 -39 -5 -44 -21 -18 -55 28 -139 92 -165 39 -17 147 -18 194
-3 78 26 138 101 139 172 0 75 -41 115 -180 176 -41 18 -85 42 -97 54 -34 30
-31 81 6 118 27 26 36 29 95 29 82 0 114 -23 123 -88 6 -42 6 -43 42 -40 l36
3 0 52 c-1 62 -23 97 -77 125 -44 23 -128 31 -183 17z"/>
<path d="M9672 4905 c-23 -7 -58 -25 -77 -40 -64 -48 -80 -99 -106 -331 -12
-110 -12 -112 12 -160 32 -66 82 -94 165 -94 100 0 173 42 215 122 27 53 25
78 -6 80 -14 0 -30 1 -36 2 -6 1 -17 -17 -25 -39 -39 -116 -215 -129 -248 -18
-11 35 24 293 45 338 24 52 63 75 129 75 44 0 56 -4 81 -29 21 -22 29 -39 29
-65 0 -35 1 -36 39 -36 48 0 57 19 41 79 -16 60 -53 98 -113 116 -61 18 -88
18 -145 0z"/>
<path d="M10186 4909 c-93 -23 -146 -87 -146 -177 0 -71 26 -97 163 -165 129
-63 144 -82 123 -147 -16 -50 -63 -72 -140 -67 -51 3 -63 8 -87 35 -19 21 -29
43 -29 63 0 29 -2 30 -37 27 -36 -3 -38 -5 -41 -40 -8 -94 69 -158 190 -158
136 0 216 57 234 168 13 81 -27 125 -175 190 -97 42 -121 65 -121 113 0 29 7
43 31 63 26 22 40 26 92 26 83 -1 127 -37 127 -105 0 -24 3 -26 38 -23 l37 3
0 52 c-1 62 -23 97 -77 125 -44 23 -128 31 -182 17z"/>
<path d="M6516 4878 c-3 -18 -17 -127 -31 -243 -14 -115 -29 -239 -34 -275 -5
-36 -6 -68 -2 -73 4 -4 93 -6 197 -5 l189 3 3 38 3 37 -155 0 -155 0 4 28 c3
15 12 86 20 157 22 192 35 296 41 333 5 32 4 32 -35 32 -37 0 -40 -2 -45 -32z"/>
<path d="M8086 4893 c-3 -10 -10 -61 -15 -113 -6 -52 -22 -183 -35 -290 -14
-107 -22 -198 -20 -202 3 -4 19 -8 35 -8 39 0 42 9 68 230 12 102 28 231 35
288 6 56 10 105 7 107 -2 3 -19 5 -37 5 -22 0 -34 -5 -38 -17z"/>
<path d="M8780 4891 c0 -11 -3 -26 -6 -35 -5 -14 6 -16 80 -16 99 0 94 9 76
-122 -23 -172 -50 -395 -50 -416 0 -21 4 -23 38 -20 l37 3 13 95 c7 52 23 176
35 275 l22 180 90 5 90 5 3 33 3 32 -215 0 c-206 0 -216 -1 -216 -19z"/>
<path d="M9325 4898 c-5 -15 -75 -577 -75 -602 0 -12 9 -16 34 -16 19 0 37 4
40 8 2 4 16 102 30 217 14 116 31 243 36 283 16 119 16 122 -25 122 -20 0 -38
-6 -40 -12z"/>
</g>
</svg>
